<svg width="529" height="754" viewBox="0 0 529 754" fill="none" xmlns="http://www.w3.org/2000/svg">
<rect width="529" height="754" fill="#E5E5E5"/>
<rect width="529" height="754" fill="#657E82"/>
<rect width="529" height="754" fill="#ECF6FF"/>
<ellipse cx="459.5" cy="70.5" rx="155.5" ry="163.5" fill="#657E82"/>
<ellipse cx="52.5" cy="701.5" rx="155.5" ry="163.5" fill="#657E82"/>
<path d="M501.5 392C501.5 529.819 395.145 641.5 264 641.5C132.855 641.5 26.5 529.819 26.5 392C26.5 254.181 132.855 142.5 264 142.5C395.145 142.5 501.5 254.181 501.5 392Z" stroke="#657E82"/>
<path d="M590.5 88.5C590.5 178.546 521.081 251.5 435.5 251.5C349.919 251.5 280.5 178.546 280.5 88.5C280.5 -1.54635 349.919 -74.5 435.5 -74.5C521.081 -74.5 590.5 -1.54635 590.5 88.5Z" stroke="#657E82"/>
<path d="M164.5 -39.5C164.5 50.5463 95.0808 123.5 9.5 123.5C-76.0808 123.5 -145.5 50.5463 -145.5 -39.5C-145.5 -129.546 -76.0808 -202.5 9.5 -202.5C95.0808 -202.5 164.5 -129.546 164.5 -39.5Z" stroke="#657E82"/>
<path d="M223.5 686.5C223.5 776.546 154.081 849.5 68.5 849.5C-17.0808 849.5 -86.5 776.546 -86.5 686.5C-86.5 596.454 -17.0808 523.5 68.5 523.5C154.081 523.5 223.5 596.454 223.5 686.5Z" stroke="#657E82"/>
<path d="M709.5 793.5C709.5 883.546 640.081 956.5 554.5 956.5C468.919 956.5 399.5 883.546 399.5 793.5C399.5 703.454 468.919 630.5 554.5 630.5C640.081 630.5 709.5 703.454 709.5 793.5Z" stroke="#657E82"/>
</svg>
