<svg width="101" height="101" viewBox="0 0 101 101" fill="none" xmlns="http://www.w3.org/2000/svg">
<path id="Vector" d="M50.5 0C44.3184 0 38.39 2.45562 34.019 6.82666C29.6479 11.1977 27.1923 17.1261 27.1923 23.3077C27.1923 36.1813 47.4661 68.1478 47.4661 85.4615H53.5339C53.5339 68.2061 73.8077 35.1325 73.8077 23.3077C73.8077 17.1261 71.3521 11.1977 66.981 6.82666C62.61 2.45562 56.6816 0 50.5 0V0ZM50.5 11.6538C53.5908 11.6538 56.555 12.8817 58.7405 15.0672C60.926 17.2527 62.1538 20.2169 62.1538 23.3077C62.1538 26.3985 60.926 29.3627 58.7405 31.5482C56.555 33.7337 53.5908 34.9615 50.5 34.9615C47.4092 34.9615 44.445 33.7337 42.2595 31.5482C40.074 29.3627 38.8462 26.3985 38.8462 23.3077C38.8462 20.2169 40.074 17.2527 42.2595 15.0672C44.445 12.8817 47.4092 11.6538 50.5 11.6538ZM26.5863 67.13C26.5033 67.1686 26.4217 67.21 26.3416 67.2543C19.1745 68.513 13.0989 70.2377 8.49954 72.5957C6.19596 73.7727 4.21092 75.1673 2.67262 76.8416C1.13042 78.5197 0 80.699 0 83.1541C0 86.8367 2.43954 89.7152 5.34135 91.774C8.24315 93.8329 11.9063 95.4062 16.3892 96.7502C25.3432 99.4384 37.3117 101 50.5 101C63.6883 101 75.6568 99.4384 84.6108 96.7502C89.0898 95.4062 92.7568 93.8368 95.6587 91.774C98.5605 89.7152 101 86.8367 101 83.1541C101 80.6912 99.8735 78.3993 98.3274 76.7212C96.7813 75.043 94.8157 73.7727 92.5005 72.5918C87.8778 70.2338 81.744 68.5091 74.5341 67.2505C74.0272 67.1522 73.5058 67.156 73.0003 67.2617C72.4949 67.3673 72.0156 67.5726 71.5904 67.8657C71.1653 68.1587 70.8028 68.5336 70.5242 68.9684C70.2457 69.4031 70.0565 69.8891 69.968 70.3978C69.8794 70.9065 69.8931 71.4278 70.0084 71.9311C70.1236 72.4344 70.3381 72.9097 70.6392 73.3292C70.9402 73.7487 71.3219 74.104 71.7619 74.3742C72.2019 74.6445 72.6914 74.8243 73.2017 74.9032C79.8949 76.0685 85.4577 77.7195 88.981 79.5142C90.7446 80.4077 91.9838 81.3672 92.6248 82.0625C93.2657 82.7579 93.2308 83.0337 93.2308 83.1541C93.2308 83.3367 92.9822 84.1757 91.168 85.4615C89.3539 86.7473 86.2618 88.1575 82.3033 89.3462C74.3904 91.7197 63.0551 93.2308 50.5 93.2308C37.9449 93.2308 26.6096 91.7197 18.6928 89.3462C14.7382 88.1575 11.6461 86.7473 9.83585 85.4615C8.01785 84.1757 7.76923 83.3367 7.76923 83.1541C7.76923 83.0375 7.74204 82.754 8.37523 82.0625C9.01231 81.371 10.267 80.4077 12.019 79.5142C15.5152 77.7234 21.0235 76.0724 27.6779 74.8993C28.1955 74.8364 28.6954 74.671 29.1484 74.4128C29.6014 74.1545 29.9983 73.8085 30.3161 73.395C30.6338 72.9816 30.8659 72.5089 30.9989 72.0047C31.1318 71.5005 31.1629 70.9749 31.0904 70.4585C31.0178 69.9422 30.8431 69.4454 30.5763 68.9974C30.3096 68.5493 29.9562 68.159 29.5369 67.849C29.1175 67.5391 28.6406 67.3159 28.134 67.1925C27.6274 67.069 27.1012 67.0478 26.5863 67.13Z" fill="#364749"/>
</svg>
