<svg width="193" height="195" viewBox="0 0 193 195" fill="none" xmlns="http://www.w3.org/2000/svg">
<g id="jam:smiley">
<g id="Group">
<path id="Vector" d="M90.9326 182.491C135.344 182.029 170.967 145.281 170.5 100.409C170.033 55.5372 133.654 19.538 89.2424 20C44.8307 20.4619 9.20844 57.2101 9.67518 102.082C10.1419 146.954 46.5209 182.953 90.9326 182.491ZM90.7636 166.242C73.7022 166.42 57.2684 159.742 45.0775 147.678C32.8865 135.614 25.937 119.153 25.7577 101.915C25.5783 84.6766 32.184 68.074 44.1214 55.7593C56.0588 43.4446 72.3501 36.4266 89.4114 36.2491C106.473 36.0716 122.907 42.7493 135.098 54.813C147.288 66.8767 154.238 83.3383 154.417 100.576C154.597 117.815 147.991 134.417 136.054 146.732C124.116 159.047 107.825 166.065 90.7636 166.242ZM122.159 133.494C122.979 135.485 122.982 137.724 122.168 139.717C121.354 141.711 119.789 143.297 117.818 144.125C115.848 144.954 113.632 144.958 111.659 144.136C109.685 143.314 108.116 141.733 107.297 139.742C105.925 136.423 103.621 133.584 100.669 131.574C97.7169 129.565 94.2463 128.475 90.6867 128.438C87.1271 128.401 83.6347 129.419 80.6413 131.366C77.648 133.313 75.2852 136.104 73.8452 139.394C73.4189 140.371 72.8063 141.254 72.0424 141.992C71.2785 142.73 70.3782 143.309 69.3929 143.696C68.4076 144.083 67.3566 144.269 66.3 144.246C65.2433 144.222 64.2017 143.988 63.2346 143.558C62.2674 143.127 61.3937 142.508 60.6633 141.737C59.9329 140.965 59.3602 140.056 58.9777 139.06C58.5953 138.065 58.4106 137.003 58.4343 135.935C58.4581 134.868 58.6896 133.815 59.1159 132.838C61.8223 126.63 66.2726 121.361 71.9149 117.684C77.5571 114.008 84.0506 112.315 90.7636 112.246C97.4765 112.176 104.114 114.284 109.678 118.077C115.243 121.87 119.582 127.231 122.159 133.494ZM113.873 68.4964C111.74 68.5186 109.704 69.3959 108.212 70.9352C106.72 72.4745 105.894 74.5499 105.916 76.7046L106.085 92.9537C106.108 95.1085 106.977 97.1662 108.5 98.6742C110.024 100.182 112.079 101.017 114.211 100.995C116.344 100.972 118.38 100.095 119.872 98.5559C121.365 97.0166 122.19 94.9412 122.168 92.7865L121.999 76.5373C121.976 74.3826 121.108 72.3249 119.584 70.8169C118.06 69.3089 116.006 68.4742 113.873 68.4964ZM65.6258 68.9983C63.4931 69.0205 61.4567 69.8977 59.9645 71.437C58.4723 72.9764 57.6466 75.0517 57.669 77.2065L57.8381 93.4556C57.8605 95.6104 58.7292 97.6681 60.253 99.176C61.7769 100.684 63.8311 101.519 65.9638 101.497C68.0965 101.474 70.1329 100.597 71.6251 99.0577C73.1172 97.5184 73.9429 95.4431 73.9205 93.2883L73.7515 77.0392C73.7291 74.8844 72.8604 72.8267 71.3365 71.3188C69.8127 69.8108 67.7584 68.9761 65.6258 68.9983Z" fill="black"/>
</g>
</g>
</svg>
