<svg width="193" height="195" viewBox="0 0 193 195" fill="none" xmlns="http://www.w3.org/2000/svg">
<g id="jam:smiley">
<g id="Group">
<path id="Vector" d="M95.6548 178.746C51.2431 178.284 15.6208 141.536 16.0875 96.6636C16.5543 51.7916 52.9332 15.7924 97.3449 16.2544C141.757 16.7163 177.379 53.4644 176.912 98.3364C176.445 143.208 140.066 179.208 95.6548 178.746ZM95.8238 162.496C112.885 162.674 129.319 155.996 141.51 143.933C153.701 131.869 160.65 115.407 160.83 98.1691C161.009 80.931 154.403 64.3284 142.466 52.0137C130.529 39.699 114.237 32.681 97.1759 32.5035C80.1146 32.326 63.6808 39.0037 51.4898 51.0674C39.2989 63.1311 32.3493 79.5927 32.17 96.8309C31.9907 114.069 38.5963 130.672 50.5337 142.986C62.4711 155.301 78.7625 162.319 95.8238 162.496V162.496ZM64.6914 124.747C63.8718 122.756 63.8686 120.517 64.6827 118.523C65.4967 116.529 67.0613 114.944 69.0321 114.115C71.003 113.287 73.2188 113.283 75.192 114.105C77.1652 114.927 78.7342 116.507 79.5539 118.499C80.9252 121.817 83.2294 124.657 86.1816 126.666C89.1337 128.675 92.6043 129.766 96.1639 129.803C99.7235 129.84 103.216 128.822 106.209 126.875C109.203 124.927 111.565 122.136 113.005 118.847C113.432 117.869 114.044 116.986 114.808 116.248C115.572 115.51 116.472 114.931 117.458 114.545C118.443 114.158 119.494 113.971 120.551 113.995C121.607 114.019 122.649 114.252 123.616 114.683C124.583 115.113 125.457 115.732 126.187 116.504C126.918 117.276 127.49 118.185 127.873 119.18C128.255 120.176 128.44 121.238 128.416 122.305C128.393 123.373 128.161 124.425 127.735 125.403C125.028 131.61 120.578 136.879 114.936 140.556C109.293 144.233 102.707 146.156 95.9945 146.086C89.2815 146.016 82.7369 143.957 77.1724 140.163C71.6078 136.37 67.2681 131.01 64.6914 124.747V124.747ZM72.7142 64.7508C74.8469 64.773 76.8833 65.6503 78.3754 67.1896C79.8676 68.7289 80.6933 70.8043 80.6709 72.959L80.5019 89.2081C80.4795 91.3629 79.6108 93.4206 78.0869 94.9286C76.563 96.4365 74.5088 97.2712 72.3762 97.2491C70.2435 97.2269 68.2071 96.3496 66.7149 94.8103C65.2227 93.2709 64.397 91.1956 64.4194 89.0409L64.5885 72.7917C64.6109 70.637 65.4796 68.5793 67.0034 67.0713C68.5273 65.5633 70.5815 64.7286 72.7142 64.7508V64.7508ZM120.962 65.2527C123.094 65.2748 125.131 66.1521 126.623 67.6914C128.115 69.2308 128.941 71.3061 128.918 73.4609L128.749 89.71C128.727 91.8648 127.858 93.9225 126.334 95.4304C124.81 96.9384 122.756 97.7731 120.624 97.7509C118.491 97.7287 116.454 96.8515 114.962 95.3121C113.47 93.7728 112.644 91.6975 112.667 89.5427L112.836 73.2936C112.858 71.1388 113.727 69.0811 115.251 67.5732C116.775 66.0652 118.829 65.2305 120.962 65.2527V65.2527Z" fill="black"/>
</g>
</g>
</svg>
