<svg width="173" height="173" viewBox="0 0 173 173" fill="none" xmlns="http://www.w3.org/2000/svg">
<g id="clarity:neutral-face-solid">
<path id="Vector" d="M86.5003 9.61108C71.2931 9.61108 56.4274 14.1205 43.7831 22.5692C31.1388 31.0179 21.2837 43.0263 15.4642 57.0759C9.64464 71.1255 8.12199 86.5853 11.0888 101.5C14.0555 116.415 21.3785 130.116 32.1316 140.869C42.8847 151.622 56.585 158.945 71.5 161.911C86.415 164.878 101.875 163.356 115.924 157.536C129.974 151.717 141.982 141.861 150.431 129.217C158.88 116.573 163.389 101.707 163.389 86.5C163.389 66.1078 155.288 46.5508 140.869 32.1313C126.449 17.7119 106.892 9.61108 86.5003 9.61108ZM120.379 110.816C120.379 112.091 119.873 113.313 118.972 114.214C118.071 115.115 116.848 115.622 115.574 115.622H57.9072C56.6327 115.622 55.4104 115.115 54.5092 114.214C53.608 113.313 53.1017 112.091 53.1017 110.816C53.1017 109.542 53.608 108.319 54.5092 107.418C55.4104 106.517 56.6327 106.011 57.9072 106.011H115.574C116.848 106.011 118.071 106.517 118.972 107.418C119.873 108.319 120.379 109.542 120.379 110.816ZM129.75 68.6233C129.75 70.3341 129.243 72.0065 128.292 73.429C127.342 74.8515 125.991 75.9602 124.41 76.6149C122.83 77.2696 121.091 77.4409 119.413 77.1071C117.735 76.7733 116.194 75.9495 114.984 74.7398C113.774 73.5301 112.95 71.9888 112.616 70.3108C112.283 68.6329 112.454 66.8937 113.109 65.3131C113.763 63.7325 114.872 62.3816 116.295 61.4311C117.717 60.4806 119.389 59.9733 121.1 59.9733C123.394 59.9733 125.595 60.8846 127.217 62.5068C128.839 64.129 129.75 66.3292 129.75 68.6233ZM53.8225 77.2733C52.1117 77.2733 50.4393 76.766 49.0168 75.8155C47.5943 74.865 46.4856 73.5141 45.8309 71.9335C45.1762 70.3529 45.0049 68.6137 45.3387 66.9358C45.6725 65.2578 46.4963 63.7166 47.706 62.5068C48.9157 61.2971 50.457 60.4733 52.135 60.1395C53.8129 59.8058 55.5521 59.9771 57.1327 60.6318C58.7133 61.2865 60.0642 62.3951 61.0147 63.8176C61.9652 65.2401 62.4725 66.9125 62.4725 68.6233C62.4728 69.7756 62.2428 70.9163 61.7961 71.9785C61.3495 73.0407 60.6951 74.003 59.8714 74.8088C59.0477 75.6146 58.0713 76.2476 56.9995 76.6709C55.9278 77.0941 54.7823 77.2989 53.6303 77.2733H53.8225Z" fill="black"/>
</g>
</svg>
